<?xml version="1.0" encoding="UTF-8"?>
<svg id="Layer_1" xmlns="http://www.w3.org/2000/svg" version="1.1" viewBox="0 0 1080 1080">
  <!-- Generator: Adobe Illustrator 30.4.0, SVG Export Plug-In . SVG Version: 2.1.4 Build 226)  -->
  <defs>
    <style>
      .st0 {
        opacity: 1;
      }

      .st1, .st2 {
        fill: #0c1538;
      }

      .st2 {
        display: none;
      }
    </style>
  </defs>
  <g class="st0">
    <g>
      <g>
        <path class="st1" d="M996,626.5c-112.1,21.7-233.9-8.3-326.9-91.6-18.6-16.7-35.2-34.7-49.7-53.8,43.7,31.2,96.9,41.7,146.2,32.2l-31.4-70c23.6-3.3,45.8-10.9,65.9-21.9,0,0,0,0,.1,0,29.8-16.3,54.9-40.2,72.7-69l123.2,274.2Z"/>
        <path class="st1" d="M996,626.5c-112.1,21.7-233.9-8.3-326.9-91.6-18.6-16.7-35.2-34.7-49.7-53.8,43.7,31.2,96.9,41.7,146.2,32.2l-31.4-70c23.6-3.3,45.8-10.9,65.9-21.9,0,0,0,0,.1,0,29.8-16.3,54.9-40.2,72.7-69l123.2,274.2Z"/>
      </g>
      <g>
        <path class="st1" d="M845.1,1006.6c0,26.6-21.5,48.1-48.1,48.1s-26.4-5.9-35.2-15.3c-.1-.1-.3-.3-.4-.4l-.8-.9-102.1-114.5c-.6.3-1.2.5-1.8.8-33.7,14.8-69.5,22.2-106.6,22.2-71,0-137.7-27.6-187.9-77.8s-77.8-116.9-77.8-187.9,0-3.3,0-4.9v-4.4c.1,0,4.4-1.2,4.4-1.2,26.6-7.6,52.8-17.6,77.6-29.7l10.8-5.3-2.3,11.8c-2.1,11.1-3.2,22.5-3.2,33.8,0,98.3,80,178.3,178.3,178.3s178.3-80,178.3-178.3-.6-16.8-1.8-25l-1.6-11.1,10.1,4.9c24.5,11.8,50.1,21.6,76.2,29l4.4,1.3v4.6c-1,69.3-28.4,134.5-77.3,183.7,0,0-.2.2-.3.3l94.3,105.6c.3.3.6.6.8.9,0,0,.1.2.2.3,7.2,8.4,11.5,19.3,11.5,31.2Z"/>
        <g>
          <path class="st1" d="M761.4,1039c.1.1.3.3.4.4h0s-.4-.4-.4-.4Z"/>
          <path class="st1" d="M833.6,975.4h0c0,0-.1-.2-.2-.2l.2.2Z"/>
        </g>
      </g>
      <g>
        <polygon class="st1" points="596.1 685.9 596.1 686 542.9 739.2 489.7 686 489.7 686 492.1 664.9 514.7 651.4 534.7 639.4 538.5 637.2 544 633.9 552.3 628.9 570.5 618.1 587.3 608 596.1 685.9 596.1 685.9"/>
        <polygon class="st1" points="585.9 596.1 570.5 605.3 553.9 615.2 533.4 627.5 533.4 627.5 514.7 638.7 493.6 651.3 495.4 635.6 514.7 624.1 531.8 613.9 555.6 599.6 570.5 590.8 584.4 582.4 585.9 596.1"/>
        <polygon class="st1" points="583 570.5 570.5 578 557.2 586 530.5 601.9 514.7 611.4 497 622 498.8 606.3 514.7 596.7 528.9 588.2 559 570.2 570.5 563.4 581.5 556.8 583 570.5"/>
        <polygon class="st1" points="580.1 544.8 570.5 550.6 560.5 556.5 527.5 576.3 514.7 584 500.3 592.6 514.7 466.4 514.7 456.8 570.5 456.8 570.5 460 570.8 463.1 571 464.7 571 464.7 580.1 544.8"/>
      </g>
      <g>
        <path class="st1" d="M460.7,481.1c-14.6,19.1-31.2,37.2-49.7,53.8-93,83.3-214.8,113.3-326.9,91.6l132.8-295.6c25.9,52.2,74.4,91.2,132.8,104l-35.2,78.3c49.4,9.6,102.5-1,146.2-32.2Z"/>
        <line class="st1" x1="512.2" y1="386.1" x2="512.2" y2="386.2"/>
        <path class="st1" d="M460.7,481.1c-14.6,19.1-31.2,37.2-49.7,53.8-93,83.3-214.8,113.3-326.9,91.6l132.8-295.6c25.9,52.2,74.4,91.2,132.8,104l-35.2,78.3c49.4,9.6,102.5-1,146.2-32.2Z"/>
      </g>
    </g>
    <g>
      <path class="st1" d="M674.2,394c-35.9,28.8-81.7,46.1-131.5,46.1s-96-17.4-132-46.5c67.1-8,120.8-59.5,132.2-125.4,11.2,65.8,64.6,117.3,131.3,125.8Z"/>
      <path class="st1" d="M694.1,89.5h-.5c-3,0-6,0-9,.3h-277.3c-4.9-.5-9.9-.7-15-.7h-.6c38.1-39.3,91.6-63.7,150.9-63.7s113.3,24.6,151.4,64.2Z"/>
      <path class="st1" d="M696.3,123.8h-2.4,2.4Z"/>
      <path class="st1" d="M748.2,136.9c-7.9-4.1-16.3-7.3-25.1-9.5-8.6-2.2-17.5-3.4-26.7-3.6-.8,0-1.6,0-2.4,0h-301.3c-10.6,0-20.8,1.4-30.6,4-8.6,2.3-16.9,5.5-24.7,9.7-37.7,19.8-63.3,59.4-63.3,104.9s31.8,93.9,76.4,110.9c8.5,3.2,17.5,5.5,26.8,6.7,5,.7,10.1,1,15.3,1,65.5,0,118.5-53.1,118.5-118.5s-.8-16-2.3-23.6h68.9c-1.5,7.6-2.4,15.5-2.4,23.6,0,65.5,53.1,118.5,118.5,118.5s9.3-.3,13.9-.8c9.5-1.1,18.5-3.3,27.2-6.5,45.2-16.7,77.4-60.2,77.4-111.2s-26.1-85.8-64.3-105.4ZM442,263.2c-7.3,22-27.3,38.3-51.3,40.2-1.6.1-3.1.2-4.7.2-19.2,0-36.2-9.2-47-23.3h0c-7.5-9.9-12-22.3-12-35.7s2.6-19.7,7.1-28.1c3.6-6.7,8.5-12.6,14.4-17.4,10.2-8.4,23.3-13.5,37.6-13.5s4.9.1,7.3.5c11.8,1.5,22.6,6.4,31.2,13.8,6,5.2,11,11.6,14.6,18.9,3.8,7.8,5.9,16.6,5.9,25.8s-1.1,12.8-3,18.6ZM744.5,287.8c-10.5,9.6-24.5,15.5-39.8,15.5-32.6,0-59-26.4-59-59s2.1-17.8,5.8-25.6c3.7-7.7,9.1-14.5,15.6-19.9,8.2-6.8,18.2-11.4,29.3-12.9,2.7-.4,5.5-.6,8.3-.6,14.7,0,28.1,5.4,38.5,14.3,2.6,2.3,5.1,4.8,7.3,7.5,8.3,10.2,13.2,23.1,13.2,37.2s-7.4,32.7-19.1,43.5Z"/>
      <path class="st1" d="M696.3,123.8h-2.4,2.4Z"/>
      <circle class="st2" cx="703.4" cy="238.5" r="41.5"/>
      <path class="st2" d="M696.3,202.1v16.6h-24.4c-.2-.4-.5-.8-.7-1.3,6.1-7.8,15-13.4,25.1-15.4Z"/>
      <path class="st1" d="M428,221.9c-1.7-1.7-3.6-3.2-5.6-4.7-7.7-5.5-17.2-8.7-27.4-8.7-25.1,0-45.7,19.5-47.4,44.3,0,1.1-.1,2.1-.1,3.2,0,8,2,15.6,5.5,22.2-9-8.6-14.5-20.8-14.5-34.2,0-26.2,21.3-47.5,47.5-47.5s34,10.3,42,25.3Z"/>
      <path class="st1" d="M428,221.9c-1.7-1.7-3.6-3.2-5.6-4.7-7.7-5.5-17.2-8.7-27.4-8.7-25.1,0-45.7,19.5-47.4,44.3,0,1.1-.1,2.1-.1,3.2,0,8,2,15.6,5.5,22.2-9-8.6-14.5-20.8-14.5-34.2,0-26.2,21.3-47.5,47.5-47.5s34,10.3,42,25.3Z"/>
      <path class="st1" d="M662.3,221.9c1.7-1.7,3.6-3.2,5.6-4.7,7.7-5.5,17.2-8.7,27.4-8.7,25.1,0,45.7,19.5,47.4,44.3,0,1.1.1,2.1.1,3.2,0,8-2,15.6-5.5,22.2,9-8.6,14.5-20.8,14.5-34.2,0-26.2-21.3-47.5-47.5-47.5s-34,10.3-42,25.3Z"/>
    </g>
  </g>
</svg>
